# xmcd
#
# Track frame offsets: 
#        150
#        16819
#        37105
#        54472
#        68442
#        84339
#        99029
#        115176
#        130741
#        145955
#        166174
#        183303
#        192684
#        206414
#        218924
#        227086
#        246105
#
# Disc length: 3475 seconds
#
# Revision: 6
# Processed by: cddbd v1.5.2PL0 Copyright (c) Steve Scherf et al.
# Submitted via: ExactAudioCopy v1.3
#
DISCID=e10d9111
DTITLE=Art Garfunkel - The Singer [CD2]
DYEAR=2012
DGENRE=Rock
TTITLE0=Simon and Garfunkel - Kathy's Song
TTITLE1=Long Way Home
TTITLE2=Art Garfunkel with Leah Kunkel - Scissors Cut
TTITLE3=Simon and Garfunkel - The Sound Of Silence
TTITLE4=Art Garfunkel with Graham Nash and David Crosby - Breakaway
TTITLE5=Simon and Garfunkel - So Long, Frank Lloyd Wright
TTITLE6=Waters Of March (with Billy Payne on Keyboard)
TTITLE7=Art Garfunkel with Amy Grant - The Decree
TTITLE8=Art Garfunkel with Kenny Rankin - I Wonder Why
TTITLE9=Disney Girls (with Bruce Johston on Piano)
TTITLE10=Simon and Garfunkel - My Little Town
TTITLE11=Art Garfunkel with Eric Weissberg - O Come All Ye Faithful
TTITLE12=A Heart In New York (with Michael Brecker on Tenor Sax)
TTITLE13=I've Grown Accustomed To Her Face
TTITLE14=Simon and Garfunkel - April Come She Will
TTITLE15=When A Man Loves A Woman (with Jeremy Steig on Flute and Mich
TTITLE15=ael Brecker on Tenor Sax)
TTITLE16=In Cars
EXTD=
EXTT0=
EXTT1=
EXTT2=
EXTT3=
EXTT4=
EXTT5=
EXTT6=
EXTT7=
EXTT8=
EXTT9=
EXTT10=
EXTT11=
EXTT12=
EXTT13=
EXTT14=
EXTT15=
EXTT16=
PLAYORDER=
